<svg width="1440" height="3000" viewBox="0 0 1440 3000" xmlns="http://www.w3.org/2000/svg">
  <defs>
    <linearGradient id="hero-gradient" x1="0%" y1="0%" x2="100%" y2="100%">
      <stop offset="0%" stop-color="#00796B" stop-opacity="0.8"/>
      <stop offset="100%" stop-color="#004D40" stop-opacity="0.9"/>
    </linearGradient>
    <filter id="shadow-1">
      <feDropShadow dx="0" dy="4" stdDeviation="6" flood-opacity="0.2"/>
    </filter>
    <filter id="shadow-2">
      <feDropShadow dx="0" dy="8" stdDeviation="12" flood-opacity="0.15"/>
    </filter>
    <linearGradient id="card-gradient" x1="0%" y1="0%" x2="100%" y2="100%">
      <stop offset="0%" stop-color="#FFFFFF" stop-opacity="0.9"/>
      <stop offset="100%" stop-color="#F8F9FA" stop-opacity="0.9"/>
    </linearGradient>
  </defs>
  
  <!-- Background -->
  <rect width="100%" height="100%" fill="#F8F9FA"/>
  
  <!-- Header/Navigation -->
  <g id="header">
    <rect width="1440" height="80" fill="#FFFFFF" filter="url(#shadow-1)"/>
    <text x="120" y="50" font-family="Inter, sans-serif" font-size="24" font-weight="700" fill="#00796B">RECIRCLE</text>
    
    <!-- Navigation Links -->
    <g font-family="Inter, sans-serif" font-size="16" font-weight="500" fill="#263238">
      <text x="720" y="50" text-anchor="middle">Home</text>
      <text x="820" y="50" text-anchor="middle">About</text>
      <text x="920" y="50" text-anchor="middle">NGO's</text>
      <text x="1020" y="50" text-anchor="middle">List Item</text>
      <text x="1120" y="50" text-anchor="middle">Profile</text>
    </g>
    
    <!-- Sign Out Button -->
    <rect x="1200" y="25" width="120" height="40" rx="20" fill="#00796B"/>
    <text x="1260" y="50" font-family="Inter, sans-serif" font-size="16" font-weight="500" fill="#FFFFFF" text-anchor="middle">Sign Out</text>
  </g>
  
  <!-- Hero Section -->
  <g id="hero-section">
    <rect y="80" width="1440" height="600" fill="url(#hero-gradient)"/>
    
    <!-- Recycling Symbol Background -->
    <g transform="translate(720, 380) scale(1.5)" opacity="0.15" fill="#FFFFFF">
      <path d="M-200,0 A200,200 0 0,1 -100,-173.2 L-50,-86.6 A100,100 0 0,0 -100,0 Z" transform="rotate(0)"/>
      <path d="M-200,0 A200,200 0 0,1 -100,-173.2 L-50,-86.6 A100,100 0 0,0 -100,0 Z" transform="rotate(120)"/>
      <path d="M-200,0 A200,200 0 0,1 -100,-173.2 L-50,-86.6 A100,100 0 0,0 -100,0 Z" transform="rotate(240)"/>
    </g>
    
    <!-- Hero Content -->
    <g transform="translate(120, 180)">
      <rect width="600" height="400" rx="8" fill="rgba(255,255,255,0.1)" filter="url(#shadow-2)"/>
      
      <text x="50" y="80" font-family="Inter, sans-serif" font-size="48" font-weight="900" fill="#FFFFFF" filter="url(#shadow-1)">RECIRCLE RECYCLING</text>
      <text x="50" y="140" font-family="Inter, sans-serif" font-size="24" font-weight="500" fill="#FFFFFF">Sustainable Solutions for a Circular Economy</text>
      
      <text x="50" y="200" width="500" font-family="Inter, sans-serif" font-size="16" fill="#FFFFFF" opacity="0.9">
        Join our community to give your unused items a second life. Help reduce waste and connect with people who can use what you no longer need.
      </text>
      
      <!-- CTA Buttons -->
      <rect x="50" y="250" width="180" height="60" rx="30" fill="#FFB74D" filter="url(#shadow-1)"/>
      <text x="140" y="288" font-family="Inter, sans-serif" font-size="18" font-weight="600" fill="#263238" text-anchor="middle">Get Started</text>
      
      <rect x="250" y="250" width="180" height="60" rx="30" fill="none" stroke="#FFFFFF" stroke-width="2"/>
      <text x="340" y="288" font-family="Inter, sans-serif" font-size="18" font-weight="600" fill="#FFFFFF" text-anchor="middle">Learn More</text>
    </g>
  </g>
  
  <!-- Feature Cards Section -->
  <g id="feature-section" transform="translate(0, 780)">
    <text x="720" y="80" font-family="Inter, sans-serif" font-size="36" font-weight="700" fill="#263238" text-anchor="middle">How It Works</text>
    
    <!-- Feature Cards -->
    <g transform="translate(120, 150)">
      <!-- Card 1 -->
      <g transform="translate(0, 0)">
        <rect width="350" height="400" rx="12" fill="url(#card-gradient)" filter="url(#shadow-2)"/>
        <circle cx="175" cy="100" r="60" fill="#4DB6AC" opacity="0.8"/>
        <text x="175" y="115" font-family="Inter, sans-serif" font-size="48" font-weight="300" fill="#FFFFFF" text-anchor="middle">1</text>
        <text x="175" y="200" font-family="Inter, sans-serif" font-size="24" font-weight="600" fill="#00796B" text-anchor="middle">List Your Items</text>
        <text x="175" y="250" width="300" font-family="Inter, sans-serif" font-size="16" fill="#546E7A" text-anchor="middle" text-length="300">
          Photograph and list items you no longer need. Provide details about condition and availability.
        </text>
        <rect x="100" y="320" width="150" height="50" rx="25" fill="#00796B"/>
        <text x="175" y="352" font-family="Inter, sans-serif" font-size="16" font-weight="500" fill="#FFFFFF" text-anchor="middle">List Now</text>
      </g>
      
      <!-- Card 2 -->
      <g transform="translate(400, 0)">
        <rect width="350" height="400" rx="12" fill="url(#card-gradient)" filter="url(#shadow-2)"/>
        <circle cx="175" cy="100" r="60" fill="#4DB6AC" opacity="0.8"/>
        <text x="175" y="115" font-family="Inter, sans-serif" font-size="48" font-weight="300" fill="#FFFFFF" text-anchor="middle">2</text>
        <text x="175" y="200" font-family="Inter, sans-serif" font-size="24" font-weight="600" fill="#00796B" text-anchor="middle">Connect</text>
        <text x="175" y="250" width="300" font-family="Inter, sans-serif" font-size="16" fill="#546E7A" text-anchor="middle" text-length="300">
          Connect with interested parties who can use your items. Arrange pickup or delivery details.
        </text>
        <rect x="100" y="320" width="150" height="50" rx="25" fill="#00796B"/>
        <text x="175" y="352" font-family="Inter, sans-serif" font-size="16" font-weight="500" fill="#FFFFFF" text-anchor="middle">Browse Items</text>
      </g>
      
      <!-- Card 3 -->
      <g transform="translate(800, 0)">
        <rect width="350" height="400" rx="12" fill="url(#card-gradient)" filter="url(#shadow-2)"/>
        <circle cx="175" cy="100" r="60" fill="#4DB6AC" opacity="0.8"/>
        <text x="175" y="115" font-family="Inter, sans-serif" font-size="48" font-weight="300" fill="#FFFFFF" text-anchor="middle">3</text>
        <text x="175" y="200" font-family="Inter, sans-serif" font-size="24" font-weight="600" fill="#00796B" text-anchor="middle">Reduce Waste</text>
        <text x="175" y="250" width="300" font-family="Inter, sans-serif" font-size="16" fill="#546E7A" text-anchor="middle" text-length="300">
          Help reduce landfill waste by giving items a second life. Track your environmental impact.
        </text>
        <rect x="100" y="320" width="150" height="50" rx="25" fill="#00796B"/>
        <text x="175" y="352" font-family="Inter, sans-serif" font-size="16" font-weight="500" fill="#FFFFFF" text-anchor="middle">Learn More</text>
      </g>
    </g>
  </g>
  
  <!-- Item Listings Section -->
  <g id="items-section" transform="translate(0, 1400)">
    <text x="720" y="80" font-family="Inter, sans-serif" font-size="36" font-weight="700" fill="#263238" text-anchor="middle">Available Items</text>
    
    <!-- Search and Filter -->
    <g transform="translate(120, 120)">
      <rect width="1200" height="80" rx="8" fill="#FFFFFF" filter="url(#shadow-1)"/>
      <rect x="20" y="20" width="600" height="40" rx="20" fill="#F5F5F5"/>
      <text x="50" y="45" font-family="Inter, sans-serif" font-size="16" fill="#546E7A">Search items...</text>
      
      <rect x="640" y="20" width="200" height="40" rx="20" fill="#F5F5F5"/>
      <text x="740" y="45" font-family="Inter, sans-serif" font-size="16" fill="#546E7A" text-anchor="middle">Category</text>
      
      <rect x="860" y="20" width="120" height="40" rx="20" fill="#00796B"/>
      <text x="920" y="45" font-family="Inter, sans-serif" font-size="16" fill="#FFFFFF" text-anchor="middle">Search</text>
    </g>
    
    <!-- Item Grid -->
    <g transform="translate(120, 240)">
      <!-- Row 1 -->
      <g>
        <!-- Item 1 -->
        <g transform="translate(0, 0)">
          <rect width="280" height="350" rx="8" fill="#FFFFFF" filter="url(#shadow-1)"/>
          <rect x="10" y="10" width="260" height="180" rx="4" fill="#E0E0E0"/>
          <text x="20" y="220" font-family="Inter, sans-serif" font-size="18" font-weight="600" fill="#263238">Laptop</text>
          <text x="20" y="250" font-family="Inter, sans-serif" font-size="14" fill="#546E7A">Electronics</text>
          <text x="20" y="280" font-family="Inter, sans-serif" font-size="14" fill="#546E7A">Used - Good condition</text>
          <rect x="20" y="300" width="100" height="30" rx="15" fill="#00796B"/>
          <text x="70" y="320" font-family="Inter, sans-serif" font-size="14" fill="#FFFFFF" text-anchor="middle">View</text>
        </g>
        
        <!-- Item 2 -->
        <g transform="translate(300, 0)">
          <rect width="280" height="350" rx="8" fill="#FFFFFF" filter="url(#shadow-1)"/>
          <rect x="10" y="10" width="260" height="180" rx="4" fill="#E0E0E0"/>
          <text x="20" y="220" font-family="Inter, sans-serif" font-size="18" font-weight="600" fill="#263238">Office Chair</text>
          <text x="20" y="250" font-family="Inter, sans-serif" font-size="14" fill="#546E7A">Furniture</text>
          <text x="20" y="280" font-family="Inter, sans-serif" font-size="14" fill="#546E7A">Used - Like new</text>
          <rect x="20" y="300" width="100" height="30" rx="15" fill="#00796B"/>
          <text x="70" y="320" font-family="Inter, sans-serif" font-size="14" fill="#FFFFFF" text-anchor="middle">View</text>
        </g>
        
        <!-- Item 3 -->
        <g transform="translate(600, 0)">
          <rect width="280" height="350" rx="8" fill="#FFFFFF" filter="url(#shadow-1)"/>
          <rect x="10" y="10" width="260" height="180" rx="4" fill="#E0E0E0"/>
          <text x="20" y="220" font-family="Inter, sans-serif" font-size="18" font-weight="600" fill="#263238">Books Collection</text>
          <text x="20" y="250" font-family="Inter, sans-serif" font-size="14" fill="#546E7A">Books</text>
          <text x="20" y="280" font-family="Inter, sans-serif" font-size="14" fill="#546E7A">Used - Good condition</text>
          <rect x="20" y="300" width="100" height="30" rx="15" fill="#00796B"/>
          <text x="70" y="320" font-family="Inter, sans-serif" font-size="14" fill="#FFFFFF" text-anchor="middle">View</text>
        </g>
        
        <!-- Item 4 -->
        <g transform="translate(900, 0)">
          <rect width="280" height="350" rx="8" fill="#FFFFFF" filter="url(#shadow-1)"/>
          <rect x="10" y="10" width="260" height="180" rx="4" fill="#E0E0E0"/>
          <text x="20" y="220" font-family="Inter, sans-serif" font-size="18" font-weight="600" fill="#263238">Desk Lamp</text>
          <text x="20" y="250" font-family="Inter, sans-serif" font-size="14" fill="#546E7A">Electronics</text>
          <text x="20" y="280" font-family="Inter, sans-serif" font-size="14" fill="#546E7A">Used - Fair condition</text>
          <rect x="20" y="300" width="100" height="30" rx="15" fill="#00796B"/>
          <text x="70" y="320" font-family="Inter, sans-serif" font-size="14" fill="#FFFFFF" text-anchor="middle">View</text>
        </g>
      </g>
      
      <!-- Row 2 -->
      <g transform="translate(0, 380)">
        <!-- Item 5 -->
        <g transform="translate(0, 0)">
          <rect width="280" height="350" rx="8" fill="#FFFFFF" filter="url(#shadow-1)"/>
          <rect x="10" y="10" width="260" height="180" rx="4" fill="#E0E0E0"/>
          <text x="20" y="220" font-family="Inter, sans-serif" font-size="18" font-weight="600" fill="#263238">Winter Jacket</text>
          <text x="20" y="250" font-family="Inter, sans-serif" font-size="14" fill="#546E7A">Clothing</text>
          <text x="20" y="280" font-family="Inter, sans-serif" font-size="14" fill="#546E7A">Used - Good condition</text>
          <rect x="20" y="300" width="100" height="30" rx="15" fill="#00796B"/>
          <text x="70" y="320" font-family="Inter, sans-serif" font-size="14" fill="#FFFFFF" text-anchor="middle">View</text>
        </g>
        
        <!-- Item 6 -->
        <g transform="translate(300, 0)">
          <rect width="280" height="350" rx="8" fill="#FFFFFF" filter="url(#shadow-1)"/>
          <rect x="10" y="10" width="260" height="180" rx="4" fill="#E0E0E0"/>
          <text x="20" y="220" font-family="Inter, sans-serif" font-size="18" font-weight="600" fill="#263238">Coffee Table</text>
          <text x="20" y="250" font-family="Inter, sans-serif" font-size="14" fill="#546E7A">Furniture</text>
          <text x="20" y="280" font-family="Inter, sans-serif" font-size="14" fill="#546E7A">Used - Good condition</text>
          <rect x="20" y="300" width="100" height="30" rx="15" fill="#00796B"/>
          <text x="70" y="320" font-family="Inter, sans-serif" font-size="14" fill="#FFFFFF" text-anchor="middle">View</text>
        </g>
        
        <!-- Item 7 -->
        <g transform="translate(600, 0)">
          <rect width="280" height="350" rx="8" fill="#FFFFFF" filter="url(#shadow-1)"/>
          <rect x="10" y="10" width="260" height="180" rx="4" fill="#E0E0E0"/>
          <text x="20" y="220" font-family="Inter, sans-serif" font-size="18" font-weight="600" fill="#263238">Bicycle</text>
          <text x="20" y="250" font-family="Inter, sans-serif" font-size="14" fill="#546E7A">Other</text>
          <text x="20" y="280" font-family="Inter, sans-serif" font-size="14" fill="#546E7A">Used - Fair condition</text>
          <rect x="20" y="300" width="100" height="30" rx="15" fill="#00796B"/>
          <text x="70" y="320" font-family="Inter, sans-serif" font-size="14" fill="#FFFFFF" text-anchor="middle">View</text>
        </g>
        
        <!-- Item 8 -->
        <g transform="translate(900, 0)">
          <rect width="280" height="350" rx="8" fill="#FFFFFF" filter="url(#shadow-1)"/>
          <rect x="10" y="10" width="260" height="180" rx="4" fill="#E0E0E0"/>
          <text x="20" y="220" font-family="Inter, sans-serif" font-size="18" font-weight="600" fill="#263238">Smartphone</text>
          <text x="20" y="250" font-family="Inter, sans-serif" font-size="14" fill="#546E7A">Electronics</text>
          <text x="20" y="280" font-family="Inter, sans-serif" font-size="14" fill="#546E7A">Used - Good condition</text>
          <rect x="20" y="300" width="100" height="30" rx="15" fill="#00796B"/>
          <text x="70" y="320" font-family="Inter, sans-serif" font-size="14" fill="#FFFFFF" text-anchor="middle">View</text>
        </g>
      </g>
    </g>
    
    <!-- Pagination -->
    <g transform="translate(600, 1050)">
      <rect width="240" height="50" rx="25" fill="#FFFFFF" filter="url(#shadow-1)"/>
      <text x="60" y="32" font-family="Inter, sans-serif" font-size="16" fill="#546E7A" text-anchor="middle">1</text>
      <text x="120" y="32" font-family="Inter, sans-serif" font-size="16" fill="#00796B" text-anchor="middle">2</text>
      <text x="180" y="32" font-family="Inter, sans-serif" font-size="16" fill="#546E7A" text-anchor="middle">3</text>
    </g>
  </g>
  
  <!-- Footer -->
  <g id="footer" transform="translate(0, 2900)">
    <rect width="1440" height="100" fill="#00796B"/>
    <text x="720" y="50" font-family="Inter, sans-serif" font-size="14" fill="#FFFFFF" text-anchor="middle">© 2023 ReCircle. All rights reserved.</text>
  </g>
  
  <!-- Floating Action Button -->
  <g id="fab" transform="translate(1340, 2800)">
    <circle cx="40" cy="40" r="40" fill="#FFB74D" filter="url(#shadow-2)"/>
    <text x="40" y="48" font-family="Inter, sans-serif" font-size="36" fill="#FFFFFF" text-anchor="middle">+</text>
  </g>
</svg>